<mxfile host="app.diagrams.net" modified="2022-03-18T09:56:18.052Z" agent="5.0 (Macintosh; Intel Mac OS X 10_15_7) AppleWebKit/537.36 (KHTML, like Gecko) Chrome/99.0.4844.51 Safari/537.36" etag="v_vraVWML1P65HuUNdi_" version="17.1.3" type="github">
  <diagram id="ZEIWh67Jv9i2e5L7hbwN" name="第 1 页">
    <mxGraphModel dx="946" dy="614" grid="1" gridSize="10" guides="1" tooltips="1" connect="1" arrows="1" fold="1" page="1" pageScale="1" pageWidth="827" pageHeight="1169" math="0" shadow="0">
      <root>
        <mxCell id="0" />
        <mxCell id="1" parent="0" />
        <mxCell id="Apzj2v5_AH3gu9qBzsO1-14" style="edgeStyle=orthogonalEdgeStyle;rounded=0;orthogonalLoop=1;jettySize=auto;html=1;entryX=0;entryY=0.5;entryDx=0;entryDy=0;" edge="1" parent="1" source="Apzj2v5_AH3gu9qBzsO1-1" target="Apzj2v5_AH3gu9qBzsO1-4">
          <mxGeometry relative="1" as="geometry" />
        </mxCell>
        <mxCell id="Apzj2v5_AH3gu9qBzsO1-15" style="edgeStyle=orthogonalEdgeStyle;rounded=0;orthogonalLoop=1;jettySize=auto;html=1;entryX=0;entryY=0.5;entryDx=0;entryDy=0;" edge="1" parent="1" source="Apzj2v5_AH3gu9qBzsO1-1" target="Apzj2v5_AH3gu9qBzsO1-9">
          <mxGeometry relative="1" as="geometry" />
        </mxCell>
        <mxCell id="Apzj2v5_AH3gu9qBzsO1-1" value="1" style="rounded=0;whiteSpace=wrap;html=1;" vertex="1" parent="1">
          <mxGeometry x="160" y="110" width="120" height="60" as="geometry" />
        </mxCell>
        <mxCell id="Apzj2v5_AH3gu9qBzsO1-16" style="edgeStyle=orthogonalEdgeStyle;rounded=0;orthogonalLoop=1;jettySize=auto;html=1;entryX=0;entryY=0.5;entryDx=0;entryDy=0;" edge="1" parent="1" source="Apzj2v5_AH3gu9qBzsO1-4" target="Apzj2v5_AH3gu9qBzsO1-11">
          <mxGeometry relative="1" as="geometry" />
        </mxCell>
        <mxCell id="Apzj2v5_AH3gu9qBzsO1-17" style="edgeStyle=orthogonalEdgeStyle;rounded=0;orthogonalLoop=1;jettySize=auto;html=1;exitX=1;exitY=0.5;exitDx=0;exitDy=0;entryX=0;entryY=0.5;entryDx=0;entryDy=0;" edge="1" parent="1" source="Apzj2v5_AH3gu9qBzsO1-4" target="Apzj2v5_AH3gu9qBzsO1-12">
          <mxGeometry relative="1" as="geometry" />
        </mxCell>
        <mxCell id="Apzj2v5_AH3gu9qBzsO1-4" value="2" style="rounded=0;whiteSpace=wrap;html=1;" vertex="1" parent="1">
          <mxGeometry x="330" y="60" width="120" height="60" as="geometry" />
        </mxCell>
        <mxCell id="Apzj2v5_AH3gu9qBzsO1-18" style="edgeStyle=orthogonalEdgeStyle;rounded=0;orthogonalLoop=1;jettySize=auto;html=1;exitX=1;exitY=0.5;exitDx=0;exitDy=0;entryX=0;entryY=0.5;entryDx=0;entryDy=0;" edge="1" parent="1" source="Apzj2v5_AH3gu9qBzsO1-9" target="Apzj2v5_AH3gu9qBzsO1-12">
          <mxGeometry relative="1" as="geometry">
            <mxPoint x="500" y="150" as="targetPoint" />
          </mxGeometry>
        </mxCell>
        <mxCell id="Apzj2v5_AH3gu9qBzsO1-19" value="" style="edgeStyle=orthogonalEdgeStyle;rounded=0;orthogonalLoop=1;jettySize=auto;html=1;" edge="1" parent="1" source="Apzj2v5_AH3gu9qBzsO1-9" target="Apzj2v5_AH3gu9qBzsO1-13">
          <mxGeometry relative="1" as="geometry" />
        </mxCell>
        <mxCell id="Apzj2v5_AH3gu9qBzsO1-9" value="3" style="rounded=0;whiteSpace=wrap;html=1;" vertex="1" parent="1">
          <mxGeometry x="330" y="170" width="120" height="60" as="geometry" />
        </mxCell>
        <mxCell id="Apzj2v5_AH3gu9qBzsO1-11" value="4" style="rounded=0;whiteSpace=wrap;html=1;" vertex="1" parent="1">
          <mxGeometry x="550" y="30" width="120" height="60" as="geometry" />
        </mxCell>
        <mxCell id="Apzj2v5_AH3gu9qBzsO1-12" value="5AND" style="rounded=0;whiteSpace=wrap;html=1;" vertex="1" parent="1">
          <mxGeometry x="550" y="120" width="120" height="60" as="geometry" />
        </mxCell>
        <mxCell id="Apzj2v5_AH3gu9qBzsO1-13" value="6" style="rounded=0;whiteSpace=wrap;html=1;" vertex="1" parent="1">
          <mxGeometry x="550" y="220" width="120" height="60" as="geometry" />
        </mxCell>
        <mxCell id="Apzj2v5_AH3gu9qBzsO1-33" style="edgeStyle=orthogonalEdgeStyle;rounded=0;orthogonalLoop=1;jettySize=auto;html=1;entryX=0;entryY=0.5;entryDx=0;entryDy=0;" edge="1" parent="1" source="Apzj2v5_AH3gu9qBzsO1-20" target="Apzj2v5_AH3gu9qBzsO1-25">
          <mxGeometry relative="1" as="geometry" />
        </mxCell>
        <mxCell id="Apzj2v5_AH3gu9qBzsO1-20" value="4" style="rounded=0;whiteSpace=wrap;html=1;" vertex="1" parent="1">
          <mxGeometry x="150" y="330" width="120" height="60" as="geometry" />
        </mxCell>
        <mxCell id="Apzj2v5_AH3gu9qBzsO1-35" style="edgeStyle=orthogonalEdgeStyle;rounded=0;orthogonalLoop=1;jettySize=auto;html=1;entryX=0;entryY=0.5;entryDx=0;entryDy=0;" edge="1" parent="1" source="Apzj2v5_AH3gu9qBzsO1-25" target="Apzj2v5_AH3gu9qBzsO1-32">
          <mxGeometry relative="1" as="geometry" />
        </mxCell>
        <mxCell id="Apzj2v5_AH3gu9qBzsO1-25" value="f1" style="rounded=0;whiteSpace=wrap;html=1;" vertex="1" parent="1">
          <mxGeometry x="320" y="360" width="120" height="60" as="geometry" />
        </mxCell>
        <mxCell id="Apzj2v5_AH3gu9qBzsO1-36" style="edgeStyle=orthogonalEdgeStyle;rounded=0;orthogonalLoop=1;jettySize=auto;html=1;entryX=0;entryY=0.5;entryDx=0;entryDy=0;" edge="1" parent="1" source="Apzj2v5_AH3gu9qBzsO1-27" target="Apzj2v5_AH3gu9qBzsO1-32">
          <mxGeometry relative="1" as="geometry" />
        </mxCell>
        <mxCell id="Apzj2v5_AH3gu9qBzsO1-27" value="6" style="rounded=0;whiteSpace=wrap;html=1;" vertex="1" parent="1">
          <mxGeometry x="320" y="490" width="120" height="60" as="geometry" />
        </mxCell>
        <mxCell id="Apzj2v5_AH3gu9qBzsO1-29" value="7" style="rounded=0;whiteSpace=wrap;html=1;" vertex="1" parent="1">
          <mxGeometry x="710" y="120" width="120" height="60" as="geometry" />
        </mxCell>
        <mxCell id="Apzj2v5_AH3gu9qBzsO1-34" style="edgeStyle=orthogonalEdgeStyle;rounded=0;orthogonalLoop=1;jettySize=auto;html=1;entryX=0;entryY=0.5;entryDx=0;entryDy=0;" edge="1" parent="1" source="Apzj2v5_AH3gu9qBzsO1-31" target="Apzj2v5_AH3gu9qBzsO1-25">
          <mxGeometry relative="1" as="geometry" />
        </mxCell>
        <mxCell id="Apzj2v5_AH3gu9qBzsO1-31" value="5" style="rounded=0;whiteSpace=wrap;html=1;" vertex="1" parent="1">
          <mxGeometry x="150" y="410" width="120" height="60" as="geometry" />
        </mxCell>
        <mxCell id="Apzj2v5_AH3gu9qBzsO1-32" value="7" style="rounded=0;whiteSpace=wrap;html=1;" vertex="1" parent="1">
          <mxGeometry x="510" y="390" width="120" height="60" as="geometry" />
        </mxCell>
      </root>
    </mxGraphModel>
  </diagram>
</mxfile>
